HIERARCHY
ROOT Hips
{
	OFFSET 0.000000 0.000000 0.000000
	CHANNELS 6 Xposition Yposition Zposition Zrotation Yrotation Xrotation 
	JOINT LHipJoint
	{
		OFFSET 0.000000 0.000000 0.000000
		CHANNELS 3 Zrotation Yrotation Xrotation
		JOINT LeftUpLeg
		{
			OFFSET 1.363060 -1.794630 0.839290
			CHANNELS 3 Zrotation Yrotation Xrotation
			JOINT LeftLeg
			{
				OFFSET 2.448110 -6.726130 0.000000
				CHANNELS 3 Zrotation Yrotation Xrotation
				JOINT LeftFoot
				{
					OFFSET 2.562200 -7.039590 0.000000
					CHANNELS 3 Zrotation Yrotation Xrotation
					JOINT LeftToeBase
					{
						OFFSET 0.157640 -0.433110 2.322550
						CHANNELS 3 Zrotation Yrotation Xrotation
						End Site
						{
							OFFSET 0.000000 0.000000 0.000000
						}
					}
				}
			}
		}
	}
	JOINT RHipJoint
	{
		OFFSET 0.000000 0.000000 0.000000
		CHANNELS 3 Zrotation Yrotation Xrotation
		JOINT RightUpLeg
		{
			OFFSET -1.305520 -1.794630 0.839290
			CHANNELS 3 Zrotation Yrotation Xrotation
			JOINT RightLeg
			{
				OFFSET -2.542530 -6.985550 0.000000
				CHANNELS 3 Zrotation Yrotation Xrotation
				JOINT RightFoot
				{
					OFFSET -2.568260 -7.056230 0.000000
					CHANNELS 3 Zrotation Yrotation Xrotation
					JOINT RightToeBase
					{
						OFFSET -0.164730 -0.452590 2.363150
						CHANNELS 3 Zrotation Yrotation Xrotation
						End Site
						{
							OFFSET 0.000000 0.000000 0.000000
						}
					}
				}
			}
		}
	}
	JOINT LowerBack
	{
		OFFSET 0.000000 0.000000 0.000000
		CHANNELS 3 Zrotation Yrotation Xrotation
		JOINT Spine
		{
			OFFSET 0.028270 2.035590 -0.193380
			CHANNELS 3 Zrotation Yrotation Xrotation
			JOINT Spine1
			{
				OFFSET 0.056720 2.048850 -0.042750
				CHANNELS 3 Zrotation Yrotation Xrotation
				JOINT Neck
				{
					OFFSET 0.000000 0.000000 0.000000
					CHANNELS 3 Zrotation Yrotation Xrotation
					JOINT Neck1
					{
						OFFSET -0.054170 1.746240 0.172020
						CHANNELS 3 Zrotation Yrotation Xrotation
						JOINT Head
						{
							OFFSET 0.104070 1.761360 -0.123970
							CHANNELS 3 Zrotation Yrotation Xrotation
							End Site
							{
								OFFSET 0.000000 0.000000 0.000000
							}
						}
					}
				}
				JOINT LeftShoulder
				{
					OFFSET 0.000000 0.000000 0.000000
					CHANNELS 3 Zrotation Yrotation Xrotation
					JOINT LeftArm
					{
						OFFSET 3.362410 1.200890 -0.311210
						CHANNELS 3 Zrotation Yrotation Xrotation
						JOINT LeftForeArm
						{
							OFFSET 4.983000 -0.000000 -0.000000
							CHANNELS 3 Zrotation Yrotation Xrotation
							JOINT LeftHand
							{
								OFFSET 3.483560 -0.000000 -0.000000
								CHANNELS 3 Zrotation Yrotation Xrotation
								JOINT LeftFingerBase
								{
									OFFSET 0.000000 0.000000 0.000000
									CHANNELS 3 Zrotation Yrotation Xrotation
									JOINT LeftHandIndex1
									{
										OFFSET 0.715260 -0.000000 -0.000000
										CHANNELS 3 Zrotation Yrotation Xrotation
										End Site
										{
											OFFSET 0.000000 0.000000 0.000000
										}
									}
								}
								JOINT LThumb
								{
									OFFSET 0.000000 0.000000 0.000000
									CHANNELS 3 Zrotation Yrotation Xrotation
									End Site
									{
										OFFSET 0.000000 0.000000 0.000000
									}
								}
							}
						}
					}
				}
				JOINT RightShoulder
				{
					OFFSET 0.000000 0.000000 0.000000
					CHANNELS 3 Zrotation Yrotation Xrotation
					JOINT RightArm
					{
						OFFSET -3.136600 1.374050 -0.404650
						CHANNELS 3 Zrotation Yrotation Xrotation
						JOINT RightForeArm
						{
							OFFSET -5.241900 -0.000000 -0.000000
							CHANNELS 3 Zrotation Yrotation Xrotation
							JOINT RightHand
							{
								OFFSET -3.444170 -0.000000 -0.000000
								CHANNELS 3 Zrotation Yrotation Xrotation
								JOINT RightFingerBase
								{
									OFFSET 0.000000 0.000000 0.000000
									CHANNELS 3 Zrotation Yrotation Xrotation
									JOINT RightHandIndex1
									{
										OFFSET -0.622530 -0.000000 -0.000000
										CHANNELS 3 Zrotation Yrotation Xrotation
										End Site
										{
											OFFSET 0.000000 0.000000 0.000000
										}
									}
								}
								JOINT RThumb
								{
									OFFSET 0.000000 0.000000 0.000000
									CHANNELS 3 Zrotation Yrotation Xrotation
									End Site
									{
										OFFSET 0.000000 0.000000 0.000000
									}
								}
							}
						}
					}
				}
			}
		}
	}
}
MOTION
Frames: 7
Frame Time: 0.008333
59.837013 6.260424 -0.226450 -93.397554 87.292713 119.163906 152.266659 -35.414374 174.282442 -78.652523 -79.632390 -64.522889 -138.506383 -48.196990 163.262829 109.025483 -19.129109 28.526332 1.349600 7.354600 20.770300 89.563995 10.211431 -120.886217 77.549119 -18.629473 -126.219569 77.727657 -87.203064 119.069054 -145.943754 83.140673 -110.346405 -4.914900 -13.287300 40.453800 61.036275 13.247178 -173.560258 -161.126827 45.074985 -48.704325 131.801216 88.990375 137.479001 -116.978073 -42.453572 -60.763176 109.047405 -43.311356 175.308212 -5.177100 9.064200 10.688700 10.048113 -48.379410 -44.352281 -137.939968 69.616136 131.095272 -9.929312 -56.128378 -56.417701 -60.625219 56.363915 -68.633760 -27.014334 72.624740 -11.628800 -7.125000 0.000000 0.000000 -4.528700 -1.058000 4.625900 -115.104854 -60.213434 142.005632 166.834429 78.053579 -15.592815 -164.825959 64.629678 172.782577 80.153734 -70.266879 -13.697544 39.011647 -65.903163 -8.057400 7.125000 0.000000 0.000000 7.578600 -2.189600 7.348900 
59.835148 6.251899 -0.225118 60.067396 65.639576 -129.967999 -72.587886 70.541139 148.421351 -123.098681 80.312692 -119.638272 73.414339 83.830879 -12.700781 -13.858769 -62.754865 -158.739195 1.337700 7.323300 20.676900 136.495712 37.028346 -28.755097 166.974156 79.639258 -106.986984 -174.301537 64.758518 -178.555233 71.013980 -78.639407 -30.070655 -5.090400 -13.484900 41.211900 61.652017 59.575552 -107.086801 -59.785971 -4.689776 -65.457872 -101.914603 50.916249 103.120553 -9.136709 -52.292934 -0.054258 -158.762014 76.924067 -77.338069 -5.114600 9.093600 10.752400 -100.280347 42.846556 141.392396 -16.109547 46.736210 84.798750 12.277653 -14.673447 116.411481 -101.831439 54.511613 -40.871332 151.600838 83.776580 168.352000 -7.125000 0.000000 0.000000 -4.529900 -1.103000 4.630600 157.125751 63.387433 -135.535640 126.432724 -84.666608 123.626565 -179.261737 84.401760 169.188688 74.576679 -71.472250 -39.638727 59.667249 -48.426207 -8.037200 7.125000 0.000000 0.000000 7.582300 -2.242200 7.345200 
59.838079 6.242041 -0.225651 -43.777931 -71.082391 32.264018 -40.987552 -6.374397 -4.123440 -87.269642 36.334068 152.661935 -91.691131 40.857692 144.022815 54.540091 89.225826 -38.081641 1.337000 7.321500 20.671300 -9.160254 40.456389 81.072456 -53.131122 80.195658 19.032645 -144.300555 -16.149544 -79.762088 96.425460 -51.240675 142.430544 -5.207500 -13.613700 41.711500 149.164044 -1.232721 61.490825 144.353385 44.286487 -106.798062 -120.203414 32.285457 117.958735 174.337129 -54.967947 -91.261717 119.222962 84.713287 13.749831 -5.052200 9.120600 10.801900 -165.123016 70.630657 -121.963986 -47.811266 -84.728727 -106.588885 -116.158136 86.822669 120.204423 -93.177235 34.429769 -61.808454 -43.607624 56.662643 -11.643099 -7.125000 0.000000 0.000000 -4.556200 -1.138100 4.660500 79.691429 39.402986 -76.616360 143.176411 -7.692347 -121.237656 -16.033079 -17.682613 -13.865280 -119.058421 -80.072376 154.287472 -129.381397 -82.206432 171.944700 7.125000 0.000000 0.000000 7.508600 -2.346600 7.258200 
59.842874 6.240976 -0.231246 141.096328 -3.738020 124.262279 -100.024331 -34.480462 -71.536439 149.429013 -70.132061 -170.743925 -80.348497 30.413773 98.960130 37.865261 -71.111728 -71.115231 1.374000 7.418000 20.959900 0.891617 -59.002925 9.838261 -161.523738 -7.071832 -8.067257 10.733588 -62.443071 167.318029 2.580871 60.780194 -172.014738 -5.171000 -13.573900 41.556500 -131.201531 10.570352 81.411840 -78.724349 6.258107 -26.115179 108.314736 31.598942 161.243696 80.902685 63.486126 92.776679 175.035063 -88.165374 -84.722857 -5.046100 9.146400 10.835800 94.018485 88.738485 152.438723 55.520961 -75.304206 127.545079 -20.561574 2.925833 115.629937 -94.965193 26.479321 -32.092539 -20.238967 39.687331 -11.606699 -7.125000 0.000000 0.000000 -4.590500 -1.116900 4.694100 -174.735898 32.055221 174.720261 -11.689119 -11.707180 74.835693 -138.086291 54.276740 -20.955030 -92.422642 -8.589239 -9.800170 -135.917159 1.156350 -8.069600 7.125000 0.000000 0.000000 7.488800 -2.346800 7.238700 
59.833816 6.239111 -0.236574 -122.060288 19.583358 116.434809 -19.425308 88.816266 133.132757 94.996647 -25.124656 -157.348356 -161.816801 48.336512 -110.861225 101.856665 -0.633653 -95.989859 1.376400 7.424200 20.978200 -142.100043 54.777897 -117.176820 37.852562 70.254228 -109.086544 127.960083 -9.252647 -151.879540 40.833091 21.781752 46.088039 -5.099400 -13.494900 41.250400 40.129328 43.876538 -48.284620 -143.684846 -73.581808 -77.525965 -160.828595 -77.752801 -75.374232 -103.757175 -86.313624 55.480276 -62.523327 -55.694143 -30.842288 -5.032700 9.163100 10.874200 106.906637 16.461675 -132.556914 -76.156587 25.352414 -141.532964 47.747317 -78.912619 126.701493 -88.739554 81.989076 -53.431792 155.847801 64.906094 168.406200 -7.125000 0.000000 0.000000 -4.604100 -1.112200 4.707800 -174.778869 77.883605 16.254795 -83.346910 84.129635 -106.396842 -144.381019 -46.524610 172.692822 81.744276 -84.511375 -36.825563 69.120935 -82.106743 -8.040798 7.125000 0.000000 0.000000 7.507300 -2.393100 7.250500 
59.822094 6.232983 -0.238439 -106.219348 -5.783032 -113.600646 94.163886 0.976320 80.631682 40.438103 -64.558295 150.223376 -177.738270 0.564985 171.847988 -68.338957 -84.354203 -144.536876 1.394300 7.470300 21.116400 173.071241 -39.229381 95.637264 -127.615523 79.025632 -26.083915 24.287642 62.482324 -11.159778 -89.932030 14.025480 131.729051 -5.126700 -13.525100 41.367400 68.026662 -80.793892 91.111170 18.826380 70.852248 63.934238 76.835177 -50.106357 -64.886610 -95.523583 47.523543 -30.324416 65.862253 -49.383078 82.471442 -5.004200 9.174100 10.863500 49.313682 -62.536530 -0.295474 -58.265423 67.047250 13.013418 35.111961 -2.689809 -65.080768 -102.260484 1.097542 -48.796566 -54.374053 7.423570 -11.613901 -7.125000 0.000000 0.000000 -4.587600 -1.127900 4.691900 130.781964 66.486367 -179.430732 -126.029045 -43.958725 91.966115 100.721038 86.457463 -4.629718 47.073731 -48.916602 -28.247675 29.489601 -31.418324 -8.038400 7.125000 0.000000 0.000000 7.472100 -2.475300 7.204700 
59.825291 6.228454 -0.239771 91.149487 -18.162694 68.708483 -26.168522 20.312693 72.199337 -175.860195 -55.260079 107.274399 -122.487778 -30.719761 116.118312 -90.288820 21.344982 4.910879 1.445700 7.600900 21.508200 -154.035149 -61.562704 -28.502962 -21.841932 62.496247 -144.940902 14.424188 40.447582 -120.308941 78.817223 5.998265 127.122486 -5.088100 -13.482300 41.201900 -35.422736 26.791923 -2.095006 94.647016 -73.191378 97.610295 131.298935 37.572871 -47.876823 167.305197 -45.683524 13.529542 -177.960384 59.307878 -30.496958 -4.995600 9.185600 10.863300 -12.589326 69.547542 -43.215743 34.213511 84.880791 98.407557 130.522545 -8.583680 -66.174720 -44.616008 10.436065 -37.615369 -7.268375 8.898911 -11.616101 -7.125000 0.000000 0.000000 -4.576700 -1.113800 4.679700 -63.671616 -49.467689 140.001268 -70.886030 58.185573 167.778760 -174.611933 -48.292841 -13.763151 113.531341 -72.767196 3.208295 67.280114 -81.203794 -8.060000 7.125000 0.000000 0.000000 7.455100 -2.447100 7.191900 
